<svg width="675" height="309" viewBox="0 0 675 309" fill="none" xmlns="http://www.w3.org/2000/svg">
<path d="M52.9644 286.5H630.758" stroke="#F0F0F0"/>
<path d="M52.9644 216.5H630.758" stroke="#F0F0F0"/>
<path d="M52.9644 146.5H630.758" stroke="#F0F0F0"/>
<path d="M52.9644 76.5H630.758" stroke="#F0F0F0"/>
<path d="M52.9644 5.5H630.758" stroke="#F0F0F0"/>
<path d="M52.3625 6V286" stroke="#F0F0F0"/>
<path d="M12.2403 297.468C12.5163 297.468 12.7083 297.672 12.7083 297.948V305.712C12.7083 305.952 12.5403 306.12 12.3123 306.12C12.0723 306.12 11.8923 305.952 11.8923 305.712V298.488L10.4763 299.292C10.4043 299.328 10.3203 299.352 10.2483 299.352C10.0083 299.352 9.85234 299.196 9.85234 298.968C9.85234 298.848 9.90034 298.716 10.0563 298.632L11.9883 297.54C12.0723 297.492 12.1563 297.468 12.2403 297.468ZM17.4824 297.468C19.0064 297.468 19.9304 298.368 19.9304 299.892V303.696C19.9304 305.16 19.0064 306.12 17.4824 306.12C15.9824 306.12 15.0344 305.196 15.0344 303.696V299.892C15.0344 298.428 15.9464 297.468 17.4824 297.468ZM17.4824 298.224C16.4504 298.224 15.8504 298.812 15.8504 299.82V303.768C15.8504 304.776 16.4504 305.364 17.4824 305.364C18.5024 305.364 19.1144 304.776 19.1144 303.768V299.82C19.1144 298.812 18.5024 298.224 17.4824 298.224ZM25.9461 297.468C26.1741 297.468 26.3301 297.636 26.3301 297.864C26.3301 297.912 26.3301 297.972 26.2941 298.056L23.1621 305.868C23.0901 306.036 22.9341 306.12 22.7661 306.12C22.5381 306.12 22.3821 305.94 22.3821 305.724C22.3821 305.676 22.3821 305.628 22.4181 305.532L25.5501 297.732C25.6221 297.564 25.7661 297.468 25.9461 297.468ZM30.5685 297.468C30.8445 297.468 31.0365 297.672 31.0365 297.948V305.712C31.0365 305.952 30.8685 306.12 30.6405 306.12C30.4005 306.12 30.2205 305.952 30.2205 305.712V298.488L28.8045 299.292C28.7325 299.328 28.6485 299.352 28.5765 299.352C28.3365 299.352 28.1805 299.196 28.1805 298.968C28.1805 298.848 28.2285 298.716 28.3845 298.632L30.3165 297.54C30.4005 297.492 30.4845 297.468 30.5685 297.468ZM35.1505 297.468C35.4265 297.468 35.6185 297.672 35.6185 297.948V305.712C35.6185 305.952 35.4505 306.12 35.2225 306.12C34.9825 306.12 34.8025 305.952 34.8025 305.712V298.488L33.3865 299.292C33.3145 299.328 33.2305 299.352 33.1585 299.352C32.9185 299.352 32.7625 299.196 32.7625 298.968C32.7625 298.848 32.8105 298.716 32.9665 298.632L34.8985 297.54C34.9825 297.492 35.0665 297.468 35.1505 297.468ZM42.0125 297.468C42.2405 297.468 42.3965 297.636 42.3965 297.864C42.3965 297.912 42.3965 297.972 42.3605 298.056L39.2285 305.868C39.1565 306.036 39.0005 306.12 38.8325 306.12C38.6045 306.12 38.4485 305.94 38.4485 305.724C38.4485 305.676 38.4485 305.628 38.4845 305.532L41.6165 297.732C41.6885 297.564 41.8325 297.468 42.0125 297.468ZM46.5749 297.468C48.0269 297.468 48.9749 298.296 48.9749 299.652C48.9749 300.468 48.5909 301.092 48.1589 301.644L45.5669 305.22H48.6509C48.8789 305.22 49.0469 305.388 49.0469 305.616C49.0469 305.832 48.8789 306 48.6509 306H44.8829C44.6069 306 44.4029 305.796 44.4029 305.532C44.4029 305.388 44.4629 305.28 44.5349 305.184L47.5109 301.2C47.7989 300.804 48.1469 300.324 48.1469 299.7C48.1469 298.74 47.4869 298.224 46.5749 298.224C46.0349 298.224 45.6509 298.32 45.0869 298.572C45.0269 298.608 44.9789 298.62 44.9189 298.62C44.6909 298.62 44.5469 298.464 44.5469 298.236C44.5469 298.092 44.6189 297.972 44.7509 297.9C45.3269 297.6 45.8789 297.468 46.5749 297.468ZM53.3066 297.468C54.8306 297.468 55.7546 298.368 55.7546 299.892V303.696C55.7546 305.16 54.8306 306.12 53.3066 306.12C51.8066 306.12 50.8586 305.196 50.8586 303.696V299.892C50.8586 298.428 51.7706 297.468 53.3066 297.468ZM53.3066 298.224C52.2746 298.224 51.6746 298.812 51.6746 299.82V303.768C51.6746 304.776 52.2746 305.364 53.3066 305.364C54.3266 305.364 54.9386 304.776 54.9386 303.768V299.82C54.9386 298.812 54.3266 298.224 53.3066 298.224ZM59.4303 297.468C60.8823 297.468 61.8303 298.296 61.8303 299.652C61.8303 300.468 61.4463 301.092 61.0143 301.644L58.4223 305.22H61.5063C61.7343 305.22 61.9023 305.388 61.9023 305.616C61.9023 305.832 61.7343 306 61.5063 306H57.7383C57.4623 306 57.2583 305.796 57.2583 305.532C57.2583 305.388 57.3183 305.28 57.3903 305.184L60.3663 301.2C60.6543 300.804 61.0023 300.324 61.0023 299.7C61.0023 298.74 60.3423 298.224 59.4303 298.224C58.8903 298.224 58.5063 298.32 57.9423 298.572C57.8823 298.608 57.8343 298.62 57.7743 298.62C57.5463 298.62 57.4023 298.464 57.4023 298.236C57.4023 298.092 57.4743 297.972 57.6063 297.9C58.1823 297.6 58.7343 297.468 59.4303 297.468ZM65.6221 297.468C65.8501 297.468 66.0181 297.624 66.0181 297.852C66.0181 297.912 66.0061 297.972 65.9821 298.032L64.1461 303.216H66.4261V301.5C66.4261 301.26 66.5941 301.104 66.8221 301.104C67.0501 301.104 67.2181 301.26 67.2181 301.5V303.216H68.1541C68.3821 303.216 68.5381 303.384 68.5381 303.612C68.5381 303.828 68.3821 303.996 68.1541 303.996H67.2181V305.724C67.2181 305.952 67.0501 306.12 66.8221 306.12C66.5941 306.12 66.4261 305.952 66.4261 305.724V303.996H63.6901C63.4141 303.996 63.2101 303.804 63.2101 303.528C63.2101 303.48 63.2221 303.42 63.2461 303.36L65.2621 297.708C65.3221 297.552 65.4661 297.468 65.6221 297.468ZM74.6544 297.468C74.9304 297.468 75.1224 297.672 75.1224 297.948V305.712C75.1224 305.952 74.9544 306.12 74.7264 306.12C74.4864 306.12 74.3064 305.952 74.3064 305.712V298.488L72.8904 299.292C72.8184 299.328 72.7344 299.352 72.6624 299.352C72.4224 299.352 72.2664 299.196 72.2664 298.968C72.2664 298.848 72.3144 298.716 72.4704 298.632L74.4024 297.54C74.4864 297.492 74.5704 297.468 74.6544 297.468ZM79.1764 297.468C80.6284 297.468 81.5764 298.296 81.5764 299.652C81.5764 300.468 81.1924 301.092 80.7604 301.644L78.1684 305.22H81.2524C81.4804 305.22 81.6484 305.388 81.6484 305.616C81.6484 305.832 81.4804 306 81.2524 306H77.4844C77.2084 306 77.0044 305.796 77.0044 305.532C77.0044 305.388 77.0644 305.28 77.1364 305.184L80.1124 301.2C80.4004 300.804 80.7484 300.324 80.7484 299.7C80.7484 298.74 80.0884 298.224 79.1764 298.224C78.6364 298.224 78.2524 298.32 77.6884 298.572C77.6284 298.608 77.5804 298.62 77.5204 298.62C77.2924 298.62 77.1484 298.464 77.1484 298.236C77.1484 298.092 77.2204 297.972 77.3524 297.9C77.9284 297.6 78.4804 297.468 79.1764 297.468ZM84.1562 299.94C84.4802 299.94 84.7442 300.204 84.7442 300.528C84.7442 300.84 84.4802 301.116 84.1562 301.116C83.8442 301.116 83.5682 300.852 83.5682 300.528C83.5682 300.204 83.8442 299.94 84.1562 299.94ZM84.1562 304.944C84.4802 304.944 84.7442 305.208 84.7442 305.532C84.7442 305.844 84.4802 306.12 84.1562 306.12C83.8442 306.12 83.5682 305.856 83.5682 305.532C83.5682 305.208 83.8442 304.944 84.1562 304.944ZM88.1647 297.468C89.6407 297.468 90.5047 298.428 90.5047 299.712C90.5047 300.564 89.9887 301.296 89.2927 301.608C90.2167 301.956 90.7447 302.796 90.7447 303.696C90.7447 305.136 89.7727 306.12 88.2127 306.12C87.3727 306.12 86.7487 305.964 86.2327 305.7C86.0887 305.628 85.9927 305.496 85.9927 305.34C85.9927 305.124 86.1607 304.968 86.3647 304.968C86.4247 304.968 86.4727 304.98 86.5327 305.004C87.0007 305.22 87.4447 305.364 88.2127 305.364C89.2807 305.364 89.9287 304.728 89.9287 303.684C89.9287 302.724 89.1607 302.016 88.0807 302.016H87.8167C87.6007 302.016 87.4447 301.86 87.4447 301.644C87.4447 301.428 87.6007 301.272 87.8167 301.272H88.0807C89.0167 301.272 89.6887 300.612 89.6887 299.724C89.6887 298.812 89.1007 298.224 88.1407 298.224C87.5767 298.224 87.1927 298.32 86.6167 298.596C86.5567 298.62 86.4967 298.632 86.4487 298.632C86.2447 298.632 86.0767 298.476 86.0767 298.248C86.0767 298.116 86.1367 297.984 86.2687 297.924C86.8807 297.6 87.4567 297.468 88.1647 297.468ZM94.3405 297.468C95.7925 297.468 96.7405 298.296 96.7405 299.652C96.7405 300.468 96.3565 301.092 95.9245 301.644L93.3325 305.22H96.4165C96.6445 305.22 96.8125 305.388 96.8125 305.616C96.8125 305.832 96.6445 306 96.4165 306H92.6485C92.3725 306 92.1685 305.796 92.1685 305.532C92.1685 305.388 92.2285 305.28 92.3005 305.184L95.2765 301.2C95.5645 300.804 95.9125 300.324 95.9125 299.7C95.9125 298.74 95.2525 298.224 94.3405 298.224C93.8005 298.224 93.4165 298.32 92.8525 298.572C92.7925 298.608 92.7445 298.62 92.6845 298.62C92.4565 298.62 92.3125 298.464 92.3125 298.236C92.3125 298.092 92.3845 297.972 92.5165 297.9C93.0925 297.6 93.6445 297.468 94.3405 297.468Z" fill="#93999D"/>
<path d="M156.689 297.468C156.965 297.468 157.157 297.672 157.157 297.948V305.712C157.157 305.952 156.989 306.12 156.761 306.12C156.521 306.12 156.341 305.952 156.341 305.712V298.488L154.925 299.292C154.853 299.328 154.769 299.352 154.697 299.352C154.457 299.352 154.301 299.196 154.301 298.968C154.301 298.848 154.349 298.716 154.505 298.632L156.437 297.54C156.521 297.492 156.605 297.468 156.689 297.468ZM161.931 297.468C163.455 297.468 164.379 298.368 164.379 299.892V303.696C164.379 305.16 163.455 306.12 161.931 306.12C160.431 306.12 159.483 305.196 159.483 303.696V299.892C159.483 298.428 160.395 297.468 161.931 297.468ZM161.931 298.224C160.899 298.224 160.299 298.812 160.299 299.82V303.768C160.299 304.776 160.899 305.364 161.931 305.364C162.951 305.364 163.563 304.776 163.563 303.768V299.82C163.563 298.812 162.951 298.224 161.931 298.224ZM170.394 297.468C170.622 297.468 170.778 297.636 170.778 297.864C170.778 297.912 170.778 297.972 170.742 298.056L167.61 305.868C167.538 306.036 167.382 306.12 167.214 306.12C166.986 306.12 166.83 305.94 166.83 305.724C166.83 305.676 166.83 305.628 166.866 305.532L169.998 297.732C170.07 297.564 170.214 297.468 170.394 297.468ZM175.017 297.468C175.293 297.468 175.485 297.672 175.485 297.948V305.712C175.485 305.952 175.317 306.12 175.089 306.12C174.849 306.12 174.669 305.952 174.669 305.712V298.488L173.253 299.292C173.181 299.328 173.097 299.352 173.025 299.352C172.785 299.352 172.629 299.196 172.629 298.968C172.629 298.848 172.677 298.716 172.833 298.632L174.765 297.54C174.849 297.492 174.933 297.468 175.017 297.468ZM179.599 297.468C179.875 297.468 180.067 297.672 180.067 297.948V305.712C180.067 305.952 179.899 306.12 179.671 306.12C179.431 306.12 179.251 305.952 179.251 305.712V298.488L177.835 299.292C177.763 299.328 177.679 299.352 177.607 299.352C177.367 299.352 177.211 299.196 177.211 298.968C177.211 298.848 177.259 298.716 177.415 298.632L179.347 297.54C179.431 297.492 179.515 297.468 179.599 297.468ZM186.461 297.468C186.689 297.468 186.845 297.636 186.845 297.864C186.845 297.912 186.845 297.972 186.809 298.056L183.677 305.868C183.605 306.036 183.449 306.12 183.281 306.12C183.053 306.12 182.897 305.94 182.897 305.724C182.897 305.676 182.897 305.628 182.933 305.532L186.065 297.732C186.137 297.564 186.281 297.468 186.461 297.468ZM191.023 297.468C192.475 297.468 193.423 298.296 193.423 299.652C193.423 300.468 193.039 301.092 192.607 301.644L190.015 305.22H193.099C193.327 305.22 193.495 305.388 193.495 305.616C193.495 305.832 193.327 306 193.099 306H189.331C189.055 306 188.851 305.796 188.851 305.532C188.851 305.388 188.911 305.28 188.983 305.184L191.959 301.2C192.247 300.804 192.595 300.324 192.595 299.7C192.595 298.74 191.935 298.224 191.023 298.224C190.483 298.224 190.099 298.32 189.535 298.572C189.475 298.608 189.427 298.62 189.367 298.62C189.139 298.62 188.995 298.464 188.995 298.236C188.995 298.092 189.067 297.972 189.199 297.9C189.775 297.6 190.327 297.468 191.023 297.468ZM197.755 297.468C199.279 297.468 200.203 298.368 200.203 299.892V303.696C200.203 305.16 199.279 306.12 197.755 306.12C196.255 306.12 195.307 305.196 195.307 303.696V299.892C195.307 298.428 196.219 297.468 197.755 297.468ZM197.755 298.224C196.723 298.224 196.123 298.812 196.123 299.82V303.768C196.123 304.776 196.723 305.364 197.755 305.364C198.775 305.364 199.387 304.776 199.387 303.768V299.82C199.387 298.812 198.775 298.224 197.755 298.224ZM203.879 297.468C205.331 297.468 206.279 298.296 206.279 299.652C206.279 300.468 205.895 301.092 205.463 301.644L202.871 305.22H205.955C206.183 305.22 206.351 305.388 206.351 305.616C206.351 305.832 206.183 306 205.955 306H202.187C201.911 306 201.707 305.796 201.707 305.532C201.707 305.388 201.767 305.28 201.839 305.184L204.815 301.2C205.103 300.804 205.451 300.324 205.451 299.7C205.451 298.74 204.791 298.224 203.879 298.224C203.339 298.224 202.955 298.32 202.391 298.572C202.331 298.608 202.283 298.62 202.223 298.62C201.995 298.62 201.851 298.464 201.851 298.236C201.851 298.092 201.923 297.972 202.055 297.9C202.631 297.6 203.183 297.468 203.879 297.468ZM210.07 297.468C210.298 297.468 210.466 297.624 210.466 297.852C210.466 297.912 210.454 297.972 210.43 298.032L208.594 303.216H210.874V301.5C210.874 301.26 211.042 301.104 211.27 301.104C211.498 301.104 211.666 301.26 211.666 301.5V303.216H212.602C212.83 303.216 212.986 303.384 212.986 303.612C212.986 303.828 212.83 303.996 212.602 303.996H211.666V305.724C211.666 305.952 211.498 306.12 211.27 306.12C211.042 306.12 210.874 305.952 210.874 305.724V303.996H208.138C207.862 303.996 207.658 303.804 207.658 303.528C207.658 303.48 207.67 303.42 207.694 303.36L209.71 297.708C209.77 297.552 209.914 297.468 210.07 297.468ZM219.103 297.468C219.379 297.468 219.571 297.672 219.571 297.948V305.712C219.571 305.952 219.403 306.12 219.175 306.12C218.935 306.12 218.755 305.952 218.755 305.712V298.488L217.339 299.292C217.267 299.328 217.183 299.352 217.111 299.352C216.871 299.352 216.715 299.196 216.715 298.968C216.715 298.848 216.763 298.716 216.919 298.632L218.851 297.54C218.935 297.492 219.019 297.468 219.103 297.468ZM223.625 297.468C225.077 297.468 226.025 298.296 226.025 299.652C226.025 300.468 225.641 301.092 225.209 301.644L222.617 305.22H225.701C225.929 305.22 226.097 305.388 226.097 305.616C226.097 305.832 225.929 306 225.701 306H221.933C221.657 306 221.453 305.796 221.453 305.532C221.453 305.388 221.513 305.28 221.585 305.184L224.561 301.2C224.849 300.804 225.197 300.324 225.197 299.7C225.197 298.74 224.537 298.224 223.625 298.224C223.085 298.224 222.701 298.32 222.137 298.572C222.077 298.608 222.029 298.62 221.969 298.62C221.741 298.62 221.597 298.464 221.597 298.236C221.597 298.092 221.669 297.972 221.801 297.9C222.377 297.6 222.929 297.468 223.625 297.468ZM228.605 299.94C228.929 299.94 229.193 300.204 229.193 300.528C229.193 300.84 228.929 301.116 228.605 301.116C228.293 301.116 228.017 300.852 228.017 300.528C228.017 300.204 228.293 299.94 228.605 299.94ZM228.605 304.944C228.929 304.944 229.193 305.208 229.193 305.532C229.193 305.844 228.929 306.12 228.605 306.12C228.293 306.12 228.017 305.856 228.017 305.532C228.017 305.208 228.293 304.944 228.605 304.944ZM232.613 297.468C234.089 297.468 234.953 298.428 234.953 299.712C234.953 300.564 234.437 301.296 233.741 301.608C234.665 301.956 235.193 302.796 235.193 303.696C235.193 305.136 234.221 306.12 232.661 306.12C231.821 306.12 231.197 305.964 230.681 305.7C230.537 305.628 230.441 305.496 230.441 305.34C230.441 305.124 230.609 304.968 230.813 304.968C230.873 304.968 230.921 304.98 230.981 305.004C231.449 305.22 231.893 305.364 232.661 305.364C233.729 305.364 234.377 304.728 234.377 303.684C234.377 302.724 233.609 302.016 232.529 302.016H232.265C232.049 302.016 231.893 301.86 231.893 301.644C231.893 301.428 232.049 301.272 232.265 301.272H232.529C233.465 301.272 234.137 300.612 234.137 299.724C234.137 298.812 233.549 298.224 232.589 298.224C232.025 298.224 231.641 298.32 231.065 298.596C231.005 298.62 230.945 298.632 230.897 298.632C230.693 298.632 230.525 298.476 230.525 298.248C230.525 298.116 230.585 297.984 230.717 297.924C231.329 297.6 231.905 297.468 232.613 297.468ZM238.789 297.468C240.241 297.468 241.189 298.296 241.189 299.652C241.189 300.468 240.805 301.092 240.373 301.644L237.781 305.22H240.865C241.093 305.22 241.261 305.388 241.261 305.616C241.261 305.832 241.093 306 240.865 306H237.097C236.821 306 236.617 305.796 236.617 305.532C236.617 305.388 236.677 305.28 236.749 305.184L239.725 301.2C240.013 300.804 240.361 300.324 240.361 299.7C240.361 298.74 239.701 298.224 238.789 298.224C238.249 298.224 237.865 298.32 237.301 298.572C237.241 298.608 237.193 298.62 237.133 298.62C236.905 298.62 236.761 298.464 236.761 298.236C236.761 298.092 236.833 297.972 236.965 297.9C237.541 297.6 238.093 297.468 238.789 297.468Z" fill="#93999D"/>
<path d="M301.137 297.468C301.413 297.468 301.605 297.672 301.605 297.948V305.712C301.605 305.952 301.437 306.12 301.209 306.12C300.969 306.12 300.789 305.952 300.789 305.712V298.488L299.373 299.292C299.301 299.328 299.217 299.352 299.145 299.352C298.905 299.352 298.749 299.196 298.749 298.968C298.749 298.848 298.797 298.716 298.953 298.632L300.885 297.54C300.969 297.492 301.053 297.468 301.137 297.468ZM306.379 297.468C307.903 297.468 308.827 298.368 308.827 299.892V303.696C308.827 305.16 307.903 306.12 306.379 306.12C304.879 306.12 303.931 305.196 303.931 303.696V299.892C303.931 298.428 304.843 297.468 306.379 297.468ZM306.379 298.224C305.347 298.224 304.747 298.812 304.747 299.82V303.768C304.747 304.776 305.347 305.364 306.379 305.364C307.399 305.364 308.011 304.776 308.011 303.768V299.82C308.011 298.812 307.399 298.224 306.379 298.224ZM314.843 297.468C315.071 297.468 315.227 297.636 315.227 297.864C315.227 297.912 315.227 297.972 315.191 298.056L312.059 305.868C311.987 306.036 311.831 306.12 311.663 306.12C311.435 306.12 311.279 305.94 311.279 305.724C311.279 305.676 311.279 305.628 311.315 305.532L314.447 297.732C314.519 297.564 314.663 297.468 314.843 297.468ZM319.465 297.468C319.741 297.468 319.933 297.672 319.933 297.948V305.712C319.933 305.952 319.765 306.12 319.537 306.12C319.297 306.12 319.117 305.952 319.117 305.712V298.488L317.701 299.292C317.629 299.328 317.545 299.352 317.473 299.352C317.233 299.352 317.077 299.196 317.077 298.968C317.077 298.848 317.125 298.716 317.281 298.632L319.213 297.54C319.297 297.492 319.381 297.468 319.465 297.468ZM324.047 297.468C324.323 297.468 324.515 297.672 324.515 297.948V305.712C324.515 305.952 324.347 306.12 324.119 306.12C323.879 306.12 323.699 305.952 323.699 305.712V298.488L322.283 299.292C322.211 299.328 322.127 299.352 322.055 299.352C321.815 299.352 321.659 299.196 321.659 298.968C321.659 298.848 321.707 298.716 321.863 298.632L323.795 297.54C323.879 297.492 323.963 297.468 324.047 297.468ZM330.909 297.468C331.137 297.468 331.293 297.636 331.293 297.864C331.293 297.912 331.293 297.972 331.257 298.056L328.125 305.868C328.053 306.036 327.897 306.12 327.729 306.12C327.501 306.12 327.345 305.94 327.345 305.724C327.345 305.676 327.345 305.628 327.381 305.532L330.513 297.732C330.585 297.564 330.729 297.468 330.909 297.468ZM335.472 297.468C336.924 297.468 337.872 298.296 337.872 299.652C337.872 300.468 337.488 301.092 337.056 301.644L334.464 305.22H337.548C337.776 305.22 337.944 305.388 337.944 305.616C337.944 305.832 337.776 306 337.548 306H333.78C333.504 306 333.3 305.796 333.3 305.532C333.3 305.388 333.36 305.28 333.432 305.184L336.408 301.2C336.696 300.804 337.044 300.324 337.044 299.7C337.044 298.74 336.384 298.224 335.472 298.224C334.932 298.224 334.548 298.32 333.984 298.572C333.924 298.608 333.876 298.62 333.816 298.62C333.588 298.62 333.444 298.464 333.444 298.236C333.444 298.092 333.516 297.972 333.648 297.9C334.224 297.6 334.776 297.468 335.472 297.468ZM342.203 297.468C343.727 297.468 344.651 298.368 344.651 299.892V303.696C344.651 305.16 343.727 306.12 342.203 306.12C340.703 306.12 339.755 305.196 339.755 303.696V299.892C339.755 298.428 340.667 297.468 342.203 297.468ZM342.203 298.224C341.171 298.224 340.571 298.812 340.571 299.82V303.768C340.571 304.776 341.171 305.364 342.203 305.364C343.223 305.364 343.835 304.776 343.835 303.768V299.82C343.835 298.812 343.223 298.224 342.203 298.224ZM348.327 297.468C349.779 297.468 350.727 298.296 350.727 299.652C350.727 300.468 350.343 301.092 349.911 301.644L347.319 305.22H350.403C350.631 305.22 350.799 305.388 350.799 305.616C350.799 305.832 350.631 306 350.403 306H346.635C346.359 306 346.155 305.796 346.155 305.532C346.155 305.388 346.215 305.28 346.287 305.184L349.263 301.2C349.551 300.804 349.899 300.324 349.899 299.7C349.899 298.74 349.239 298.224 348.327 298.224C347.787 298.224 347.403 298.32 346.839 298.572C346.779 298.608 346.731 298.62 346.671 298.62C346.443 298.62 346.299 298.464 346.299 298.236C346.299 298.092 346.371 297.972 346.503 297.9C347.079 297.6 347.631 297.468 348.327 297.468ZM354.519 297.468C354.747 297.468 354.915 297.624 354.915 297.852C354.915 297.912 354.903 297.972 354.879 298.032L353.043 303.216H355.323V301.5C355.323 301.26 355.491 301.104 355.719 301.104C355.947 301.104 356.115 301.26 356.115 301.5V303.216H357.051C357.279 303.216 357.435 303.384 357.435 303.612C357.435 303.828 357.279 303.996 357.051 303.996H356.115V305.724C356.115 305.952 355.947 306.12 355.719 306.12C355.491 306.12 355.323 305.952 355.323 305.724V303.996H352.587C352.311 303.996 352.107 303.804 352.107 303.528C352.107 303.48 352.119 303.42 352.143 303.36L354.159 297.708C354.219 297.552 354.363 297.468 354.519 297.468ZM363.551 297.468C363.827 297.468 364.019 297.672 364.019 297.948V305.712C364.019 305.952 363.851 306.12 363.623 306.12C363.383 306.12 363.203 305.952 363.203 305.712V298.488L361.787 299.292C361.715 299.328 361.631 299.352 361.559 299.352C361.319 299.352 361.163 299.196 361.163 298.968C361.163 298.848 361.211 298.716 361.367 298.632L363.299 297.54C363.383 297.492 363.467 297.468 363.551 297.468ZM368.073 297.468C369.525 297.468 370.473 298.296 370.473 299.652C370.473 300.468 370.089 301.092 369.657 301.644L367.065 305.22H370.149C370.377 305.22 370.545 305.388 370.545 305.616C370.545 305.832 370.377 306 370.149 306H366.381C366.105 306 365.901 305.796 365.901 305.532C365.901 305.388 365.961 305.28 366.033 305.184L369.009 301.2C369.297 300.804 369.645 300.324 369.645 299.7C369.645 298.74 368.985 298.224 368.073 298.224C367.533 298.224 367.149 298.32 366.585 298.572C366.525 298.608 366.477 298.62 366.417 298.62C366.189 298.62 366.045 298.464 366.045 298.236C366.045 298.092 366.117 297.972 366.249 297.9C366.825 297.6 367.377 297.468 368.073 297.468ZM373.053 299.94C373.377 299.94 373.641 300.204 373.641 300.528C373.641 300.84 373.377 301.116 373.053 301.116C372.741 301.116 372.465 300.852 372.465 300.528C372.465 300.204 372.741 299.94 373.053 299.94ZM373.053 304.944C373.377 304.944 373.641 305.208 373.641 305.532C373.641 305.844 373.377 306.12 373.053 306.12C372.741 306.12 372.465 305.856 372.465 305.532C372.465 305.208 372.741 304.944 373.053 304.944ZM377.061 297.468C378.537 297.468 379.401 298.428 379.401 299.712C379.401 300.564 378.885 301.296 378.189 301.608C379.113 301.956 379.641 302.796 379.641 303.696C379.641 305.136 378.669 306.12 377.109 306.12C376.269 306.12 375.645 305.964 375.129 305.7C374.985 305.628 374.889 305.496 374.889 305.34C374.889 305.124 375.057 304.968 375.261 304.968C375.321 304.968 375.369 304.98 375.429 305.004C375.897 305.22 376.341 305.364 377.109 305.364C378.177 305.364 378.825 304.728 378.825 303.684C378.825 302.724 378.057 302.016 376.977 302.016H376.713C376.497 302.016 376.341 301.86 376.341 301.644C376.341 301.428 376.497 301.272 376.713 301.272H376.977C377.913 301.272 378.585 300.612 378.585 299.724C378.585 298.812 377.997 298.224 377.037 298.224C376.473 298.224 376.089 298.32 375.513 298.596C375.453 298.62 375.393 298.632 375.345 298.632C375.141 298.632 374.973 298.476 374.973 298.248C374.973 298.116 375.033 297.984 375.165 297.924C375.777 297.6 376.353 297.468 377.061 297.468ZM383.237 297.468C384.689 297.468 385.637 298.296 385.637 299.652C385.637 300.468 385.253 301.092 384.821 301.644L382.229 305.22H385.313C385.541 305.22 385.709 305.388 385.709 305.616C385.709 305.832 385.541 306 385.313 306H381.545C381.269 306 381.065 305.796 381.065 305.532C381.065 305.388 381.125 305.28 381.197 305.184L384.173 301.2C384.461 300.804 384.809 300.324 384.809 299.7C384.809 298.74 384.149 298.224 383.237 298.224C382.697 298.224 382.313 298.32 381.749 298.572C381.689 298.608 381.641 298.62 381.581 298.62C381.353 298.62 381.209 298.464 381.209 298.236C381.209 298.092 381.281 297.972 381.413 297.9C381.989 297.6 382.541 297.468 383.237 297.468Z" fill="#93999D"/>
<path d="M445.586 297.468C445.862 297.468 446.054 297.672 446.054 297.948V305.712C446.054 305.952 445.886 306.12 445.658 306.12C445.418 306.12 445.238 305.952 445.238 305.712V298.488L443.822 299.292C443.75 299.328 443.666 299.352 443.594 299.352C443.354 299.352 443.198 299.196 443.198 298.968C443.198 298.848 443.246 298.716 443.402 298.632L445.334 297.54C445.418 297.492 445.502 297.468 445.586 297.468ZM450.828 297.468C452.352 297.468 453.276 298.368 453.276 299.892V303.696C453.276 305.16 452.352 306.12 450.828 306.12C449.328 306.12 448.38 305.196 448.38 303.696V299.892C448.38 298.428 449.292 297.468 450.828 297.468ZM450.828 298.224C449.796 298.224 449.196 298.812 449.196 299.82V303.768C449.196 304.776 449.796 305.364 450.828 305.364C451.848 305.364 452.46 304.776 452.46 303.768V299.82C452.46 298.812 451.848 298.224 450.828 298.224ZM459.291 297.468C459.519 297.468 459.675 297.636 459.675 297.864C459.675 297.912 459.675 297.972 459.639 298.056L456.507 305.868C456.435 306.036 456.279 306.12 456.111 306.12C455.883 306.12 455.727 305.94 455.727 305.724C455.727 305.676 455.727 305.628 455.763 305.532L458.895 297.732C458.967 297.564 459.111 297.468 459.291 297.468ZM463.914 297.468C464.19 297.468 464.382 297.672 464.382 297.948V305.712C464.382 305.952 464.214 306.12 463.986 306.12C463.746 306.12 463.566 305.952 463.566 305.712V298.488L462.15 299.292C462.078 299.328 461.994 299.352 461.922 299.352C461.682 299.352 461.526 299.196 461.526 298.968C461.526 298.848 461.574 298.716 461.73 298.632L463.662 297.54C463.746 297.492 463.83 297.468 463.914 297.468ZM468.496 297.468C468.772 297.468 468.964 297.672 468.964 297.948V305.712C468.964 305.952 468.796 306.12 468.568 306.12C468.328 306.12 468.148 305.952 468.148 305.712V298.488L466.732 299.292C466.66 299.328 466.576 299.352 466.504 299.352C466.264 299.352 466.108 299.196 466.108 298.968C466.108 298.848 466.156 298.716 466.312 298.632L468.244 297.54C468.328 297.492 468.412 297.468 468.496 297.468ZM475.358 297.468C475.586 297.468 475.742 297.636 475.742 297.864C475.742 297.912 475.742 297.972 475.706 298.056L472.574 305.868C472.502 306.036 472.346 306.12 472.178 306.12C471.95 306.12 471.794 305.94 471.794 305.724C471.794 305.676 471.794 305.628 471.83 305.532L474.962 297.732C475.034 297.564 475.178 297.468 475.358 297.468ZM479.92 297.468C481.372 297.468 482.32 298.296 482.32 299.652C482.32 300.468 481.936 301.092 481.504 301.644L478.912 305.22H481.996C482.224 305.22 482.392 305.388 482.392 305.616C482.392 305.832 482.224 306 481.996 306H478.228C477.952 306 477.748 305.796 477.748 305.532C477.748 305.388 477.808 305.28 477.88 305.184L480.856 301.2C481.144 300.804 481.492 300.324 481.492 299.7C481.492 298.74 480.832 298.224 479.92 298.224C479.38 298.224 478.996 298.32 478.432 298.572C478.372 298.608 478.324 298.62 478.264 298.62C478.036 298.62 477.892 298.464 477.892 298.236C477.892 298.092 477.964 297.972 478.096 297.9C478.672 297.6 479.224 297.468 479.92 297.468ZM486.652 297.468C488.176 297.468 489.1 298.368 489.1 299.892V303.696C489.1 305.16 488.176 306.12 486.652 306.12C485.152 306.12 484.204 305.196 484.204 303.696V299.892C484.204 298.428 485.116 297.468 486.652 297.468ZM486.652 298.224C485.62 298.224 485.02 298.812 485.02 299.82V303.768C485.02 304.776 485.62 305.364 486.652 305.364C487.672 305.364 488.284 304.776 488.284 303.768V299.82C488.284 298.812 487.672 298.224 486.652 298.224ZM492.776 297.468C494.228 297.468 495.176 298.296 495.176 299.652C495.176 300.468 494.792 301.092 494.36 301.644L491.768 305.22H494.852C495.08 305.22 495.248 305.388 495.248 305.616C495.248 305.832 495.08 306 494.852 306H491.084C490.808 306 490.604 305.796 490.604 305.532C490.604 305.388 490.664 305.28 490.736 305.184L493.712 301.2C494 300.804 494.348 300.324 494.348 299.7C494.348 298.74 493.688 298.224 492.776 298.224C492.236 298.224 491.852 298.32 491.288 298.572C491.228 298.608 491.18 298.62 491.12 298.62C490.892 298.62 490.748 298.464 490.748 298.236C490.748 298.092 490.82 297.972 490.952 297.9C491.528 297.6 492.08 297.468 492.776 297.468ZM498.967 297.468C499.195 297.468 499.363 297.624 499.363 297.852C499.363 297.912 499.351 297.972 499.327 298.032L497.491 303.216H499.771V301.5C499.771 301.26 499.939 301.104 500.167 301.104C500.395 301.104 500.563 301.26 500.563 301.5V303.216H501.499C501.727 303.216 501.883 303.384 501.883 303.612C501.883 303.828 501.727 303.996 501.499 303.996H500.563V305.724C500.563 305.952 500.395 306.12 500.167 306.12C499.939 306.12 499.771 305.952 499.771 305.724V303.996H497.035C496.759 303.996 496.555 303.804 496.555 303.528C496.555 303.48 496.567 303.42 496.591 303.36L498.607 297.708C498.667 297.552 498.811 297.468 498.967 297.468ZM508 297.468C508.276 297.468 508.468 297.672 508.468 297.948V305.712C508.468 305.952 508.3 306.12 508.072 306.12C507.832 306.12 507.652 305.952 507.652 305.712V298.488L506.236 299.292C506.164 299.328 506.08 299.352 506.008 299.352C505.768 299.352 505.612 299.196 505.612 298.968C505.612 298.848 505.66 298.716 505.816 298.632L507.748 297.54C507.832 297.492 507.916 297.468 508 297.468ZM512.522 297.468C513.974 297.468 514.922 298.296 514.922 299.652C514.922 300.468 514.538 301.092 514.106 301.644L511.514 305.22H514.598C514.826 305.22 514.994 305.388 514.994 305.616C514.994 305.832 514.826 306 514.598 306H510.83C510.554 306 510.35 305.796 510.35 305.532C510.35 305.388 510.41 305.28 510.482 305.184L513.458 301.2C513.746 300.804 514.094 300.324 514.094 299.7C514.094 298.74 513.434 298.224 512.522 298.224C511.982 298.224 511.598 298.32 511.034 298.572C510.974 298.608 510.926 298.62 510.866 298.62C510.638 298.62 510.494 298.464 510.494 298.236C510.494 298.092 510.566 297.972 510.698 297.9C511.274 297.6 511.826 297.468 512.522 297.468ZM517.501 299.94C517.825 299.94 518.089 300.204 518.089 300.528C518.089 300.84 517.825 301.116 517.501 301.116C517.189 301.116 516.913 300.852 516.913 300.528C516.913 300.204 517.189 299.94 517.501 299.94ZM517.501 304.944C517.825 304.944 518.089 305.208 518.089 305.532C518.089 305.844 517.825 306.12 517.501 306.12C517.189 306.12 516.913 305.856 516.913 305.532C516.913 305.208 517.189 304.944 517.501 304.944ZM521.51 297.468C522.986 297.468 523.85 298.428 523.85 299.712C523.85 300.564 523.334 301.296 522.638 301.608C523.562 301.956 524.09 302.796 524.09 303.696C524.09 305.136 523.118 306.12 521.558 306.12C520.718 306.12 520.094 305.964 519.578 305.7C519.434 305.628 519.338 305.496 519.338 305.34C519.338 305.124 519.506 304.968 519.71 304.968C519.77 304.968 519.818 304.98 519.878 305.004C520.346 305.22 520.79 305.364 521.558 305.364C522.626 305.364 523.274 304.728 523.274 303.684C523.274 302.724 522.506 302.016 521.426 302.016H521.162C520.946 302.016 520.79 301.86 520.79 301.644C520.79 301.428 520.946 301.272 521.162 301.272H521.426C522.362 301.272 523.034 300.612 523.034 299.724C523.034 298.812 522.446 298.224 521.486 298.224C520.922 298.224 520.538 298.32 519.962 298.596C519.902 298.62 519.842 298.632 519.794 298.632C519.59 298.632 519.422 298.476 519.422 298.248C519.422 298.116 519.482 297.984 519.614 297.924C520.226 297.6 520.802 297.468 521.51 297.468ZM527.686 297.468C529.138 297.468 530.086 298.296 530.086 299.652C530.086 300.468 529.702 301.092 529.27 301.644L526.678 305.22H529.762C529.99 305.22 530.158 305.388 530.158 305.616C530.158 305.832 529.99 306 529.762 306H525.994C525.718 306 525.514 305.796 525.514 305.532C525.514 305.388 525.574 305.28 525.646 305.184L528.622 301.2C528.91 300.804 529.258 300.324 529.258 299.7C529.258 298.74 528.598 298.224 527.686 298.224C527.146 298.224 526.762 298.32 526.198 298.572C526.138 298.608 526.09 298.62 526.03 298.62C525.802 298.62 525.658 298.464 525.658 298.236C525.658 298.092 525.73 297.972 525.862 297.9C526.438 297.6 526.99 297.468 527.686 297.468Z" fill="#93999D"/>
<path d="M580.108 297.468C580.384 297.468 580.576 297.672 580.576 297.948V305.712C580.576 305.952 580.408 306.12 580.18 306.12C579.94 306.12 579.76 305.952 579.76 305.712V298.488L578.344 299.292C578.272 299.328 578.188 299.352 578.116 299.352C577.876 299.352 577.72 299.196 577.72 298.968C577.72 298.848 577.768 298.716 577.924 298.632L579.856 297.54C579.94 297.492 580.024 297.468 580.108 297.468ZM585.35 297.468C586.874 297.468 587.798 298.368 587.798 299.892V303.696C587.798 305.16 586.874 306.12 585.35 306.12C583.85 306.12 582.902 305.196 582.902 303.696V299.892C582.902 298.428 583.814 297.468 585.35 297.468ZM585.35 298.224C584.318 298.224 583.718 298.812 583.718 299.82V303.768C583.718 304.776 584.318 305.364 585.35 305.364C586.37 305.364 586.982 304.776 586.982 303.768V299.82C586.982 298.812 586.37 298.224 585.35 298.224ZM593.814 297.468C594.042 297.468 594.198 297.636 594.198 297.864C594.198 297.912 594.198 297.972 594.162 298.056L591.03 305.868C590.958 306.036 590.802 306.12 590.634 306.12C590.406 306.12 590.25 305.94 590.25 305.724C590.25 305.676 590.25 305.628 590.286 305.532L593.418 297.732C593.49 297.564 593.634 297.468 593.814 297.468ZM598.436 297.468C598.712 297.468 598.904 297.672 598.904 297.948V305.712C598.904 305.952 598.736 306.12 598.508 306.12C598.268 306.12 598.088 305.952 598.088 305.712V298.488L596.672 299.292C596.6 299.328 596.516 299.352 596.444 299.352C596.204 299.352 596.048 299.196 596.048 298.968C596.048 298.848 596.096 298.716 596.252 298.632L598.184 297.54C598.268 297.492 598.352 297.468 598.436 297.468ZM603.018 297.468C603.294 297.468 603.486 297.672 603.486 297.948V305.712C603.486 305.952 603.318 306.12 603.09 306.12C602.85 306.12 602.67 305.952 602.67 305.712V298.488L601.254 299.292C601.182 299.328 601.098 299.352 601.026 299.352C600.786 299.352 600.63 299.196 600.63 298.968C600.63 298.848 600.678 298.716 600.834 298.632L602.766 297.54C602.85 297.492 602.934 297.468 603.018 297.468ZM609.88 297.468C610.108 297.468 610.264 297.636 610.264 297.864C610.264 297.912 610.264 297.972 610.228 298.056L607.096 305.868C607.024 306.036 606.868 306.12 606.7 306.12C606.472 306.12 606.316 305.94 606.316 305.724C606.316 305.676 606.316 305.628 606.352 305.532L609.484 297.732C609.556 297.564 609.7 297.468 609.88 297.468ZM614.442 297.468C615.894 297.468 616.842 298.296 616.842 299.652C616.842 300.468 616.458 301.092 616.026 301.644L613.434 305.22H616.518C616.746 305.22 616.914 305.388 616.914 305.616C616.914 305.832 616.746 306 616.518 306H612.75C612.474 306 612.27 305.796 612.27 305.532C612.27 305.388 612.33 305.28 612.402 305.184L615.378 301.2C615.666 300.804 616.014 300.324 616.014 299.7C616.014 298.74 615.354 298.224 614.442 298.224C613.902 298.224 613.518 298.32 612.954 298.572C612.894 298.608 612.846 298.62 612.786 298.62C612.558 298.62 612.414 298.464 612.414 298.236C612.414 298.092 612.486 297.972 612.618 297.9C613.194 297.6 613.746 297.468 614.442 297.468ZM621.174 297.468C622.698 297.468 623.622 298.368 623.622 299.892V303.696C623.622 305.16 622.698 306.12 621.174 306.12C619.674 306.12 618.726 305.196 618.726 303.696V299.892C618.726 298.428 619.638 297.468 621.174 297.468ZM621.174 298.224C620.142 298.224 619.542 298.812 619.542 299.82V303.768C619.542 304.776 620.142 305.364 621.174 305.364C622.194 305.364 622.806 304.776 622.806 303.768V299.82C622.806 298.812 622.194 298.224 621.174 298.224ZM627.298 297.468C628.75 297.468 629.698 298.296 629.698 299.652C629.698 300.468 629.314 301.092 628.882 301.644L626.29 305.22H629.374C629.602 305.22 629.77 305.388 629.77 305.616C629.77 305.832 629.602 306 629.374 306H625.606C625.33 306 625.126 305.796 625.126 305.532C625.126 305.388 625.186 305.28 625.258 305.184L628.234 301.2C628.522 300.804 628.87 300.324 628.87 299.7C628.87 298.74 628.21 298.224 627.298 298.224C626.758 298.224 626.374 298.32 625.81 298.572C625.75 298.608 625.702 298.62 625.642 298.62C625.414 298.62 625.27 298.464 625.27 298.236C625.27 298.092 625.342 297.972 625.474 297.9C626.05 297.6 626.602 297.468 627.298 297.468ZM633.489 297.468C633.717 297.468 633.885 297.624 633.885 297.852C633.885 297.912 633.873 297.972 633.849 298.032L632.013 303.216H634.293V301.5C634.293 301.26 634.461 301.104 634.689 301.104C634.917 301.104 635.085 301.26 635.085 301.5V303.216H636.021C636.249 303.216 636.405 303.384 636.405 303.612C636.405 303.828 636.249 303.996 636.021 303.996H635.085V305.724C635.085 305.952 634.917 306.12 634.689 306.12C634.461 306.12 634.293 305.952 634.293 305.724V303.996H631.557C631.281 303.996 631.077 303.804 631.077 303.528C631.077 303.48 631.089 303.42 631.113 303.36L633.129 297.708C633.189 297.552 633.333 297.468 633.489 297.468ZM642.522 297.468C642.798 297.468 642.99 297.672 642.99 297.948V305.712C642.99 305.952 642.822 306.12 642.594 306.12C642.354 306.12 642.174 305.952 642.174 305.712V298.488L640.758 299.292C640.686 299.328 640.602 299.352 640.53 299.352C640.29 299.352 640.134 299.196 640.134 298.968C640.134 298.848 640.182 298.716 640.338 298.632L642.27 297.54C642.354 297.492 642.438 297.468 642.522 297.468ZM647.044 297.468C648.496 297.468 649.444 298.296 649.444 299.652C649.444 300.468 649.06 301.092 648.628 301.644L646.036 305.22H649.12C649.348 305.22 649.516 305.388 649.516 305.616C649.516 305.832 649.348 306 649.12 306H645.352C645.076 306 644.872 305.796 644.872 305.532C644.872 305.388 644.932 305.28 645.004 305.184L647.98 301.2C648.268 300.804 648.616 300.324 648.616 299.7C648.616 298.74 647.956 298.224 647.044 298.224C646.504 298.224 646.12 298.32 645.556 298.572C645.496 298.608 645.448 298.62 645.388 298.62C645.16 298.62 645.016 298.464 645.016 298.236C645.016 298.092 645.088 297.972 645.22 297.9C645.796 297.6 646.348 297.468 647.044 297.468ZM652.024 299.94C652.348 299.94 652.612 300.204 652.612 300.528C652.612 300.84 652.348 301.116 652.024 301.116C651.712 301.116 651.436 300.852 651.436 300.528C651.436 300.204 651.712 299.94 652.024 299.94ZM652.024 304.944C652.348 304.944 652.612 305.208 652.612 305.532C652.612 305.844 652.348 306.12 652.024 306.12C651.712 306.12 651.436 305.856 651.436 305.532C651.436 305.208 651.712 304.944 652.024 304.944ZM656.032 297.468C657.508 297.468 658.372 298.428 658.372 299.712C658.372 300.564 657.856 301.296 657.16 301.608C658.084 301.956 658.612 302.796 658.612 303.696C658.612 305.136 657.64 306.12 656.08 306.12C655.24 306.12 654.616 305.964 654.1 305.7C653.956 305.628 653.86 305.496 653.86 305.34C653.86 305.124 654.028 304.968 654.232 304.968C654.292 304.968 654.34 304.98 654.4 305.004C654.868 305.22 655.312 305.364 656.08 305.364C657.148 305.364 657.796 304.728 657.796 303.684C657.796 302.724 657.028 302.016 655.948 302.016H655.684C655.468 302.016 655.312 301.86 655.312 301.644C655.312 301.428 655.468 301.272 655.684 301.272H655.948C656.884 301.272 657.556 300.612 657.556 299.724C657.556 298.812 656.968 298.224 656.008 298.224C655.444 298.224 655.06 298.32 654.484 298.596C654.424 298.62 654.364 298.632 654.316 298.632C654.112 298.632 653.944 298.476 653.944 298.248C653.944 298.116 654.004 297.984 654.136 297.924C654.748 297.6 655.324 297.468 656.032 297.468ZM662.208 297.468C663.66 297.468 664.608 298.296 664.608 299.652C664.608 300.468 664.224 301.092 663.792 301.644L661.2 305.22H664.284C664.512 305.22 664.68 305.388 664.68 305.616C664.68 305.832 664.512 306 664.284 306H660.516C660.24 306 660.036 305.796 660.036 305.532C660.036 305.388 660.096 305.28 660.168 305.184L663.144 301.2C663.432 300.804 663.78 300.324 663.78 299.7C663.78 298.74 663.12 298.224 662.208 298.224C661.668 298.224 661.284 298.32 660.72 298.572C660.66 298.608 660.612 298.62 660.552 298.62C660.324 298.62 660.18 298.464 660.18 298.236C660.18 298.092 660.252 297.972 660.384 297.9C660.96 297.6 661.512 297.468 662.208 297.468Z" fill="#93999D"/>
<path d="M29.6193 283.588H32.9673C33.1953 283.588 33.3513 283.768 33.3513 283.972C33.3513 284.188 33.1953 284.368 32.9673 284.368H29.9313V287.152C30.3513 286.972 30.7953 286.876 31.2153 286.876C32.5593 286.876 33.5793 287.848 33.5793 289.132V289.852C33.5793 291.148 32.5593 292.12 31.2153 292.12C30.3753 292.12 29.7633 291.964 29.2353 291.7C29.0793 291.628 28.9953 291.484 28.9953 291.34C28.9953 291.136 29.1393 290.968 29.3673 290.968C29.4153 290.968 29.4633 290.98 29.5233 291.004C30.0393 291.232 30.4113 291.364 31.2153 291.364C32.1033 291.364 32.7633 290.716 32.7633 289.852V289.132C32.7633 288.268 32.1153 287.632 31.1913 287.632C30.6033 287.632 30.2673 287.776 29.7993 287.98C29.7393 288.004 29.6673 288.016 29.5953 288.016C29.3193 288.016 29.1153 287.812 29.1153 287.536V284.104C29.1153 283.804 29.3193 283.588 29.6193 283.588ZM38.5614 283.468C38.8134 283.468 39.1134 283.492 39.3774 283.552C39.5694 283.6 39.6774 283.732 39.6774 283.936C39.6774 284.152 39.5334 284.296 39.3054 284.296C39.2694 284.296 39.2214 284.284 39.1494 284.272C39.0054 284.248 38.8254 284.224 38.5614 284.224C36.8094 284.224 36.2094 285.316 36.2094 287.188V287.584C36.5814 287.068 37.2654 286.828 37.8054 286.828C39.1134 286.828 40.1454 287.8 40.1454 289.096V289.852C40.1454 291.148 39.1254 292.12 37.7694 292.12C36.4134 292.12 35.4054 291.148 35.4054 289.852V287.212C35.4054 285.244 36.1134 283.468 38.5614 283.468ZM37.7694 287.584C36.8934 287.584 36.2214 288.22 36.2214 289.072V289.876C36.2214 290.716 36.8934 291.364 37.7694 291.364C38.6574 291.364 39.3294 290.716 39.3294 289.876V289.072C39.3294 288.22 38.6574 287.584 37.7694 287.584Z" fill="#93999D"/>
<path d="M30.3927 213.588H33.7407C33.9687 213.588 34.1247 213.768 34.1247 213.972C34.1247 214.188 33.9687 214.368 33.7407 214.368H30.7047V217.152C31.1247 216.972 31.5687 216.876 31.9887 216.876C33.3327 216.876 34.3527 217.848 34.3527 219.132V219.852C34.3527 221.148 33.3327 222.12 31.9887 222.12C31.1487 222.12 30.5367 221.964 30.0087 221.7C29.8527 221.628 29.7687 221.484 29.7687 221.34C29.7687 221.136 29.9127 220.968 30.1407 220.968C30.1887 220.968 30.2367 220.98 30.2967 221.004C30.8127 221.232 31.1847 221.364 31.9887 221.364C32.8767 221.364 33.5367 220.716 33.5367 219.852V219.132C33.5367 218.268 32.8887 217.632 31.9647 217.632C31.3767 217.632 31.0407 217.776 30.5727 217.98C30.5127 218.004 30.4407 218.016 30.3687 218.016C30.0927 218.016 29.8887 217.812 29.8887 217.536V214.104C29.8887 213.804 30.0927 213.588 30.3927 213.588ZM35.9389 213.588H39.9709C40.2469 213.588 40.4629 213.792 40.4629 214.08C40.4629 214.152 40.4509 214.212 40.4269 214.284L37.4389 221.82C37.3549 222.036 37.2229 222.12 37.0429 222.12C36.8029 222.12 36.6349 221.976 36.6349 221.712C36.6349 221.664 36.6469 221.604 36.6829 221.52L39.5029 214.368H35.9389C35.6989 214.368 35.5429 214.2 35.5429 213.972C35.5429 213.756 35.6989 213.588 35.9389 213.588Z" fill="#93999D"/>
<path d="M29.3263 143.588H32.6743C32.9023 143.588 33.0583 143.768 33.0583 143.972C33.0583 144.188 32.9023 144.368 32.6743 144.368H29.6383V147.152C30.0583 146.972 30.5023 146.876 30.9223 146.876C32.2663 146.876 33.2863 147.848 33.2863 149.132V149.852C33.2863 151.148 32.2663 152.12 30.9223 152.12C30.0823 152.12 29.4703 151.964 28.9423 151.7C28.7863 151.628 28.7023 151.484 28.7023 151.34C28.7023 151.136 28.8463 150.968 29.0743 150.968C29.1223 150.968 29.1703 150.98 29.2303 151.004C29.7463 151.232 30.1183 151.364 30.9223 151.364C31.8103 151.364 32.4703 150.716 32.4703 149.852V149.132C32.4703 148.268 31.8223 147.632 30.8983 147.632C30.3103 147.632 29.9743 147.776 29.5063 147.98C29.4463 148.004 29.3743 148.016 29.3023 148.016C29.0263 148.016 28.8223 147.812 28.8223 147.536V144.104C28.8223 143.804 29.0263 143.588 29.3263 143.588ZM37.5725 143.468C38.9285 143.468 39.8285 144.392 39.8285 145.7C39.8285 146.516 39.3845 147.212 38.6885 147.56C39.5645 147.932 40.0325 148.76 40.0325 149.66C40.0325 151.172 39.0125 152.12 37.5725 152.12C36.1325 152.12 35.1125 151.172 35.1125 149.66C35.1125 148.76 35.5685 147.944 36.4445 147.56C35.7605 147.212 35.3165 146.516 35.3165 145.7C35.3165 144.392 36.2165 143.468 37.5725 143.468ZM37.5725 147.968C36.5885 147.968 35.9165 148.664 35.9165 149.672C35.9165 150.728 36.5885 151.364 37.5725 151.364C38.5445 151.364 39.2165 150.728 39.2165 149.672C39.2165 148.664 38.5445 147.968 37.5725 147.968ZM37.5725 144.224C36.7205 144.224 36.1205 144.812 36.1205 145.7C36.1205 146.552 36.7565 147.212 37.5725 147.212C38.3765 147.212 39.0245 146.552 39.0245 145.7C39.0245 144.812 38.4125 144.224 37.5725 144.224Z" fill="#93999D"/>
<path d="M29.6193 73.588H32.9673C33.1953 73.588 33.3513 73.768 33.3513 73.972C33.3513 74.188 33.1953 74.368 32.9673 74.368H29.9313V77.152C30.3513 76.972 30.7953 76.876 31.2153 76.876C32.5593 76.876 33.5793 77.848 33.5793 79.132V79.852C33.5793 81.148 32.5593 82.12 31.2153 82.12C30.3753 82.12 29.7633 81.964 29.2353 81.7C29.0793 81.628 28.9953 81.484 28.9953 81.34C28.9953 81.136 29.1393 80.968 29.3673 80.968C29.4153 80.968 29.4633 80.98 29.5233 81.004C30.0393 81.232 30.4113 81.364 31.2153 81.364C32.1033 81.364 32.7633 80.716 32.7633 79.852V79.132C32.7633 78.268 32.1153 77.632 31.1913 77.632C30.6033 77.632 30.2673 77.776 29.7993 77.98C29.7393 78.004 29.6673 78.016 29.5953 78.016C29.3193 78.016 29.1153 77.812 29.1153 77.536V74.104C29.1153 73.804 29.3193 73.588 29.6193 73.588ZM37.5774 73.468C38.9334 73.468 39.9534 74.44 39.9534 75.736V78.376C39.9534 80.344 39.2334 82.12 36.7974 82.12C36.5454 82.12 36.2454 82.096 35.9694 82.036C35.7894 81.988 35.6694 81.844 35.6694 81.652C35.6694 81.436 35.8254 81.292 36.0414 81.292C36.0894 81.292 36.1494 81.304 36.2094 81.316C36.3654 81.34 36.5334 81.364 36.7974 81.364C38.5494 81.364 39.1374 80.272 39.1374 78.4V78.016C38.7654 78.52 38.0814 78.76 37.5414 78.76C36.2454 78.76 35.2134 77.788 35.2134 76.492V75.736C35.2134 74.44 36.2334 73.468 37.5774 73.468ZM37.5774 74.224C36.7014 74.224 36.0294 74.872 36.0294 75.712V76.516C36.0294 77.368 36.7014 78.004 37.5774 78.004C38.4654 78.004 39.1374 77.368 39.1374 76.516V75.712C39.1374 74.872 38.4654 74.224 37.5774 74.224Z" fill="#93999D"/>
<path d="M31.7177 3.468C31.9697 3.468 32.2697 3.492 32.5337 3.552C32.7257 3.6 32.8337 3.732 32.8337 3.936C32.8337 4.152 32.6897 4.296 32.4617 4.296C32.4257 4.296 32.3777 4.284 32.3057 4.272C32.1617 4.248 31.9817 4.224 31.7177 4.224C29.9657 4.224 29.3657 5.316 29.3657 7.188V7.584C29.7377 7.068 30.4217 6.828 30.9617 6.828C32.2697 6.828 33.3017 7.8 33.3017 9.096V9.852C33.3017 11.148 32.2817 12.12 30.9257 12.12C29.5697 12.12 28.5617 11.148 28.5617 9.852V7.212C28.5617 5.244 29.2697 3.468 31.7177 3.468ZM30.9257 7.584C30.0497 7.584 29.3777 8.22 29.3777 9.072V9.876C29.3777 10.716 30.0497 11.364 30.9257 11.364C31.8137 11.364 32.4857 10.716 32.4857 9.876V9.072C32.4857 8.22 31.8137 7.584 30.9257 7.584ZM37.5033 3.468C39.0273 3.468 39.9513 4.368 39.9513 5.892V9.696C39.9513 11.16 39.0273 12.12 37.5033 12.12C36.0033 12.12 35.0553 11.196 35.0553 9.696V5.892C35.0553 4.428 35.9673 3.468 37.5033 3.468ZM37.5033 4.224C36.4713 4.224 35.8713 4.812 35.8713 5.82V9.768C35.8713 10.776 36.4713 11.364 37.5033 11.364C38.5233 11.364 39.1353 10.776 39.1353 9.768V5.82C39.1353 4.812 38.5233 4.224 37.5033 4.224Z" fill="#93999D"/>
<path d="M50.8081 63.632L204.325 84.5455L355.585 63.632H506.844H630.758" stroke="#4C5CC5" stroke-width="2"/>
</svg>
