<svg width="127" height="30" viewBox="0 0 127 30" fill="none" xmlns="http://www.w3.org/2000/svg">
<path d="M21.2688 8.82354C21.2688 8.21223 21.4765 7.70474 21.9032 7.28951C22.3299 6.87429 22.8259 6.66667 23.4026 6.66667C24.0024 6.66667 24.4983 6.87429 24.902 7.28951C25.2942 7.70474 25.5018 8.22376 25.5018 8.82354V27.8316C25.5018 28.4429 25.3057 28.9504 24.902 29.3656C24.5099 29.7809 24.0024 29.9885 23.4026 29.9885C22.8259 29.9885 22.3299 29.7809 21.9032 29.3656C21.4765 28.9504 21.2688 28.4429 21.2688 27.8316V8.82354Z" fill="#E40040"/>
<path d="M25.7901 2.41061C25.7901 3.07958 25.5594 3.64475 25.0981 4.11765C24.6367 4.59054 24.0715 4.82122 23.4141 4.82122C22.7567 4.82122 22.1915 4.57901 21.7301 4.11765C21.2688 3.64475 21.0381 3.07958 21.0381 2.41061C21.0381 1.74164 21.2688 1.17647 21.7301 0.703576C22.1915 0.230681 22.7567 0 23.4141 0C24.0715 0 24.6367 0.230681 25.0981 0.703576C25.5594 1.17647 25.7901 1.74164 25.7901 2.41061Z" fill="#E40040"/>
<path d="M70.2768 7.40485C70.2768 6.79354 70.4729 6.28604 70.8767 5.87082C71.2689 5.45559 71.7763 5.24799 72.3761 5.24799C72.9758 5.24799 73.4833 5.45559 73.8986 5.87082C74.3022 6.28604 74.5098 6.80508 74.5098 7.40485V26.3668C74.5098 26.9435 74.3484 27.4741 74.0139 27.9239C73.6909 28.3853 73.2526 28.7082 72.699 28.9043C70.646 29.6309 68.5005 29.9885 66.2515 29.9885C65.0519 29.9885 63.9331 29.8039 62.9066 29.4464C61.8801 29.0888 60.9804 28.5121 60.2192 27.7393C59.481 26.9896 58.9274 26.09 58.5814 25.0519C58.2238 24.0138 58.0508 22.872 58.0508 21.6263V7.40485C58.0508 6.79354 58.2584 6.28604 58.662 5.87082C59.0773 5.45559 59.5848 5.24799 60.1846 5.24799C60.7613 5.24799 61.2572 5.45559 61.6609 5.87082C62.0762 6.28604 62.2722 6.80508 62.2722 7.40485V21.9608C62.2722 23.2641 62.6183 24.2676 63.3218 24.9596C64.0139 25.6517 64.9942 25.9977 66.2515 25.9977C67.6472 25.9977 68.985 25.8362 70.2653 25.5017V7.40485H70.2768Z" fill="#E40040"/>
<path d="M17.1972 26.0784C16.7935 25.6978 16.286 25.5017 15.6863 25.5017H10.6574H10.5882C8.59285 25.5017 7.04729 24.8904 5.97463 23.6678C4.89043 22.4452 4.34833 20.8305 4.34833 18.8005V12.3414C4.34833 10.323 4.89043 8.69667 5.97463 7.47406C7.05883 6.27452 8.59285 5.65168 10.5882 5.65168H10.6574H15.6863C16.3091 5.65168 16.8166 5.46714 17.2088 5.09805C17.4741 4.8443 17.6471 4.52135 17.7393 4.14073C17.7739 3.96771 17.797 3.7947 17.797 3.59863C17.797 3.02192 17.6009 2.53749 17.1857 2.15687C16.782 1.77625 16.2745 1.58017 15.6747 1.58017H10.5882C8.99654 1.58017 7.55479 1.83392 6.26298 2.35295C4.95963 2.87198 3.85237 3.59863 2.91811 4.53288C1.98385 5.47867 1.26874 6.60901 0.761246 7.94695C0.253749 9.27337 0 10.7497 0 12.353V18.812C0 20.4268 0.253749 21.8916 0.761246 23.218C1.26874 24.5444 1.98385 25.6863 2.91811 26.6321C3.85237 27.5779 4.95963 28.3045 6.26298 28.812C7.56632 29.331 9.00807 29.5848 10.5882 29.5848H15.6863C16.3091 29.5848 16.8166 29.4002 17.2088 29.0312C17.6009 28.6621 17.797 28.1661 17.797 27.5317C17.797 27.3472 17.7739 27.1857 17.7278 27.0242C17.6471 26.6551 17.4741 26.3437 17.1972 26.0784Z" fill="#E40040"/>
<path d="M54.8442 26.1476C54.4405 25.767 53.9561 25.5825 53.3678 25.5825H50.0345H49.7807V25.594C48.5236 25.594 47.5432 25.248 46.8511 24.5559C46.1591 23.8639 45.8015 22.8604 45.8015 21.5571V13.6332C45.8015 12.3529 46.1476 11.361 46.8511 10.6574C47.5547 9.94233 48.5236 9.59631 49.7807 9.59631H49.8269H53.3217C53.9214 9.59631 54.4174 9.37716 54.7981 9.0196C55.1787 8.66205 55.3748 8.17762 55.3748 7.55478C55.3748 7.34717 55.3402 7.15109 55.2825 6.97808C55.1902 6.66666 55.0287 6.38984 54.7866 6.15917C54.3944 5.79008 53.9099 5.60553 53.3332 5.60553H49.7923C47.3586 5.60553 45.3748 6.37831 43.8407 7.93541C42.3413 9.46943 41.5801 11.4648 41.5801 13.9331V21.2226C41.5801 23.7255 42.3298 25.7439 43.8407 27.2664C45.3748 28.8235 47.3586 29.5963 49.7923 29.5963H53.3794C53.9907 29.5963 54.4866 29.4118 54.8788 29.0542C55.1441 28.812 55.3056 28.5006 55.3863 28.143C55.4324 27.97 55.4555 27.7855 55.4555 27.5779C55.4324 27.0011 55.2364 26.5283 54.8442 26.1476Z" fill="#E40040"/>
<path d="M33.714 27.8201C33.714 26.7128 33.714 12.0185 33.714 12.0185C33.714 10.5998 34.579 9.59632 36.1015 9.59632C36.1015 9.59632 37.3472 9.64246 37.9123 9.64246C39.1234 9.64246 39.9654 8.83508 39.9654 7.65861C39.9654 6.48213 39.1119 5.73242 37.9123 5.59401C37.4048 5.53634 36.1015 5.4902 36.1015 5.4902C31.7301 5.4902 29.481 8.14304 29.481 12.3184C29.481 12.3184 29.481 26.759 29.481 27.8316C29.481 28.9273 30.346 30 31.5917 30C32.8373 29.9885 33.714 28.9158 33.714 27.8201Z" fill="#E40040"/>
<path d="M120.623 27.8201C120.623 26.7128 120.623 12.0185 120.623 12.0185C120.623 10.5998 121.488 9.59632 123.01 9.59632C123.01 9.59632 124.256 9.64246 124.821 9.64246C126.032 9.64246 126.874 8.83508 126.874 7.65861C126.874 6.48213 126.021 5.73242 124.821 5.59401C124.314 5.53634 123.01 5.4902 123.01 5.4902C118.639 5.4902 116.39 8.14304 116.39 12.3184C116.39 12.3184 116.39 26.759 116.39 27.8316C116.39 28.9273 117.255 30 118.501 30C119.746 29.9885 120.623 28.9158 120.623 27.8201Z" fill="#E40040"/>
<path d="M88.0162 25.9977C87.9701 25.9631 87.9355 25.9285 87.8893 25.8939C87.5663 25.6863 87.1627 25.5709 86.7014 25.5709C86.4591 25.5709 86.1015 25.5825 85.7556 25.594C85.2942 25.6055 84.8905 25.6171 84.8905 25.6171C83.4949 25.6171 82.653 24.7636 82.5259 23.5294C82.5145 23.4256 82.5029 23.3218 82.5029 23.2065C82.5029 23.1949 82.5029 23.1949 82.5029 23.1834C82.5029 23.1834 82.5029 13.9446 82.5029 9.59631H86.4822C87.6125 9.59631 88.616 8.812 88.616 7.60092C88.616 6.38985 87.6817 5.60554 86.4822 5.60554H82.5029V2.17993C82.5029 1.56863 82.2953 1.0496 81.8917 0.634373C81.4764 0.219148 80.992 0.0115356 80.4153 0.0115356C79.8155 0.0115356 79.308 0.219148 78.8928 0.634373C78.4775 1.0496 78.2815 1.56863 78.2815 2.17993V7.67013V22.9066C78.2815 23.9216 78.4199 24.8558 78.6852 25.6747C78.6967 25.7209 78.7082 25.767 78.7314 25.8016C78.7429 25.8478 78.7659 25.8939 78.789 25.94C79.3541 27.4741 80.4153 28.6044 81.9377 29.2157C82.7336 29.5271 83.6448 29.7001 84.6944 29.7232C84.7637 29.7232 84.8328 29.7347 84.9021 29.7347C84.9021 29.7347 86.2054 29.6886 86.7128 29.6309C87.9124 29.504 88.7659 28.7428 88.7659 27.5663C88.7544 26.8973 88.4776 26.3553 88.0162 25.9977Z" fill="#E40040"/>
<path d="M93.2758 17.5894C93.2758 13.1719 96.6437 9.59631 101.972 9.59631C104.245 9.59631 108.293 9.86159 110.104 10C110.484 10.0231 110.681 9.59631 110.45 9.33102C108.305 6.82815 104.694 5.19031 101.269 5.19031C94.4984 5.19031 89.0197 10.7382 89.0197 17.5894C89.0197 19.0773 89.285 20.5075 89.7579 21.8339C89.8732 22.1569 90.1384 22.3875 90.5191 22.3875H94.1061C94.4522 22.3875 94.6137 22.0185 94.4522 21.7647C93.7025 20.5421 93.2758 19.1234 93.2758 17.5894Z" fill="#E40040"/>
<ellipse cx="101.269" cy="17.5894" rx="4.54441" ry="4.60208" fill="#E40040"/>
<path d="M109.262 17.5894C109.262 22.0069 105.894 25.5825 100.565 25.5825C98.2931 25.5825 94.2446 25.3172 92.4338 25.1788C92.0531 25.1557 91.857 25.5825 92.0877 25.8477C94.2331 28.3506 97.8432 29.9884 101.269 29.9884C108.039 29.9884 113.518 24.4406 113.518 17.5894C113.518 16.1015 113.253 14.6713 112.78 13.3448C112.664 13.0219 112.399 12.7912 112.019 12.7912H108.431C108.085 12.7912 107.924 13.1603 108.085 13.4141C108.824 14.6367 109.262 16.0669 109.262 17.5894Z" fill="#E40040"/>
</svg>
